<mxfile host="65bd71144e">
    <diagram id="gS62HKT2RlT-aWWCu-2V" name="Page-1">
        <mxGraphModel dx="1758" dy="869" grid="1" gridSize="10" guides="1" tooltips="1" connect="1" arrows="1" fold="1" page="1" pageScale="1" pageWidth="850" pageHeight="1100" math="0" shadow="0">
            <root>
                <mxCell id="0"/>
                <mxCell id="1" parent="0"/>
                <mxCell id="2" value="Navbar" style="html=1;" vertex="1" parent="1">
                    <mxGeometry width="850" height="50" as="geometry"/>
                </mxCell>
                <mxCell id="3" value="embedded calendar" style="html=1;" vertex="1" parent="1">
                    <mxGeometry x="25" y="70" width="800" height="290" as="geometry"/>
                </mxCell>
            </root>
        </mxGraphModel>
    </diagram>
</mxfile>